<svg xmlns="http://www.w3.org/2000/svg" direction="ltr" width="669.7312014970177" height="561.2982309595805" viewBox="116.0434568686785 312.0781184069282 669.7312014970177 561.2982309595805" stroke-linecap="round" stroke-linejoin="round" data-color-mode="light" class="tl-container tl-theme__force-sRGB tl-theme__light" style="background-color: rgb(249, 250, 251);"><defs/><g transform="matrix(1, 0, 0, 1, 153.6547, 407.9481)" opacity="1"><g transform="scale(1)"><path d="M0,-2.6417 T2.0497,-2.5654 6.1721,-2.4259 10.7403,-2.2774 16.2327,-2.1287 23.0467,-2.0189 30.391,-1.6244 38.2694,-0.771 46.5755,0.0093 55.1632,0.594 63.6651,1.0737 70.948,1.6539 76.9688,2.2824 81.41,2.5553 84.9116,2.6062 88.0225,2.7216 91.0892,2.8525 94.244,2.7673 97.3288,2.5706 100.8729,2.162 104.9167,1.7471 108.7195,1.2791 112.1672,0.2322 115.5976,-0.9141 119.0373,-1.8492 122.3299,-2.7879 125.9088,-3.8624 129.26,-4.8172 131.833,-5.9251 134.5323,-7.8878 137.9779,-9.9024 141.689,-11.1847 145.4174,-12.2312 149.1944,-13.2215 153.0968,-14.4324 156.9226,-15.7231 160.2152,-16.736 163.293,-17.7279 166.426,-18.9092 169.9597,-20.3919 173.2436,-21.5376 176.8532,-22.4184 180.9388,-23.3507 184.4636,-24.225 187.7867,-25.1255 191.3429,-26.0704 194.6131,-27.005 197.5324,-27.7602 200.6183,-28.4397 203.83,-29.1273 207.7909,-29.7345 211.6692,-30.0919 214.6797,-30.2865 217.9478,-30.5563 221.3451,-31.0413 224.2847,-32.3444 227.0339,-34.4658 229.6433,-36.9811 232.0107,-39.8465 234.1334,-43.0125 235.9435,-45.8287 237.7031,-48.202 240.3402,-50.4309 243.9932,-52.2177 247.698,-53.4534 250.8614,-54.1921 254.1684,-54.6162 257.4702,-54.7695 260.4304,-54.7757 263.9334,-54.7237 267.5445,-54.6542 270.8585,-54.617 273.9515,-54.5966 277.2432,-54.5998 280.6636,-54.8756 284.1425,-55.7727 287.9864,-56.605 292.0423,-57.0627 296.1165,-57.5165 299.8447,-57.8808 303.4897,-58.2158 306.803,-58.4455 309.9072,-58.5567 313.1395,-58.9167 316.9176,-59.2242 321.6288,-59.1682 326.594,-59.0701 330.5572,-58.9771 334.2754,-58.9252 338.4885,-58.7654 342.1611,-58.52 345.3752,-58.3571 349.7908,-58.1929 354.6435,-57.7019 358.5481,-57.0381 362.7319,-56.5622 367.0886,-56.2333 371.7188,-55.8556 375.7685,-55.5467 378.7306,-55.4949 381.8136,-55.4791 384.9912,-55.3285 388.5923,-55.1484 392.3576,-55.1784 395.5846,-55.3221 398.9137,-55.4665 402.8096,-55.5388 406.9792,-55.5467 411.1811,-55.5532 415.1878,-55.6059 418.5227,-55.6981 421.6812,-55.7934 424.8733,-55.8697 427.9193,-55.9084 431.2326,-56.2529 434.3382,-57.115 437.131,-58.101 439.992,-58.6577 443.0613,-58.7743 446.665,-58.7778 450.3219,-58.7456 453.9672,-58.7204 457.4901,-58.7368 460.5921,-59.0801 464.2159,-59.6949 467.9394,-60.0115 471.2777,-60.0325 475.1451,-60.02 478.9,-60.004 481.9751,-60.0125 485.3359,-60.3651 488.7312,-60.9503 492.0527,-61.3057 495.2155,-61.7204 498.2224,-62.378 501.5951,-62.8089 504.7732,-62.8876 507.8343,-63.2153 511.1903,-63.5814 514.4859,-63.6144 517.6963,-63.5831 521.1772,-63.5193 525.2387,-63.4275 529.1829,-63.3596 532.322,-63.3541 535.3616,-63.3893 538.5591,-63.4428 541.6248,-63.4578 544.9839,-63.1828 548.3548,-62.4558 551.3366,-61.7488 554.3619,-61.1672 558.2156,-60.2086 562.1159,-58.3227 565.3239,-56.9206 568.462,-56.782 571.4539,-56.7929 574.3641,-57.3726 577.0604,-58.5532 579.8161,-59.6113 582.8495,-60.6272 586.133,-61.8491 589.276,-63.1109 592.1507,-64.0012 594.963,-65.1141 597.1653,-66.5292 598.028,-67.114 A3.86,3.86 0 0 1 602.212,-60.626 T600.3383,-59.7183 596.5891,-58.0767 592.7527,-56.3768 588.9742,-54.7394 585.6054,-53.4285 582.3041,-52.4129 579.0328,-51.3595 575.6328,-49.958 572.173,-49.2232 569.1824,-49.2308 566.3139,-49.2974 563.4128,-49.7966 560.3861,-51.2092 557.3546,-52.9422 554.4526,-53.9558 551.4336,-54.4854 548.0002,-55.2497 544.6074,-55.9385 541.6136,-56.1422 538.5591,-56.1572 535.3616,-56.2107 532.3221,-56.2459 529.183,-56.2403 525.2388,-56.1724 521.1777,-56.0804 517.142,-56.013 513.2117,-55.9743 510.0631,-55.9776 506.3461,-55.6565 502.5894,-55.5348 499.1848,-55.1819 495.7289,-54.3307 492.4256,-53.9305 488.5094,-53.611 484.9261,-53.086 481.9765,-52.7869 478.9038,-52.7939 475.1685,-52.7679 471.3579,-52.7219 468.1867,-52.6342 464.65,-52.2465 461.243,-51.6368 458.3726,-51.3555 455.1361,-51.3577 451.9248,-51.3526 448.165,-51.316 444.2031,-51.2822 440.8894,-51.2109 437.7062,-50.5832 433.9118,-49.5727 429.521,-48.9292 425.7792,-48.7542 422.7286,-48.8142 419.7814,-48.9041 416.5477,-49.0037 413.1368,-49.0794 409.3461,-49.1092 404.8908,-49.0974 400.3076,-49.1394 396.413,-49.2831 393.341,-49.4955 390.1899,-49.7994 385.8931,-50.3233 381.6844,-50.7198 378.4958,-50.8706 375.4615,-51.1252 371.506,-51.3795 366.9364,-51.4672 362.412,-51.4236 357.8144,-51.4723 354.1182,-51.7727 349.7484,-51.9291 345.2577,-51.8148 342.067,-51.8737 338.4853,-52.2483 334.2774,-52.5128 330.5616,-52.4585 326.6074,-52.3575 321.6801,-52.2297 317.2147,-52.0735 313.8088,-51.7433 310.8905,-51.4952 307.584,-51.4741 304.3154,-51.3277 300.7125,-50.9564 297.0704,-50.5515 293.3451,-50.0243 289.1659,-49.3547 285.7103,-48.7156 282.5161,-47.832 279.3693,-47.3056 275.955,-47.3226 272.4188,-47.3139 269.2481,-47.2879 265.9185,-47.2455 262.1049,-47.18 258.1128,-47.1309 254.6136,-46.9918 251.2933,-46.6032 247.489,-45.4268 244.1503,-43.4602 241.7062,-41.1691 240.0011,-38.5803 238.611,-36.0131 236.8209,-33.6917 234.2691,-30.9888 231.105,-28.0942 228.3035,-25.8431 225.3578,-24.5072 221.9601,-23.7762 218.8623,-23.3007 215.4861,-22.9438 211.8249,-22.6028 207.9981,-22.2059 204.1103,-21.631 200.8635,-21.0191 197.9208,-20.3472 195.0236,-19.6906 192.2328,-18.9819 189.5364,-18.1996 185.9085,-17.2553 181.8598,-16.3094 178.2746,-15.519 175.0423,-14.7876 171.538,-13.6142 167.413,-11.883 163.9593,-10.648 160.6744,-9.6199 156.7322,-8.3114 152.7362,-7.0071 149.0318,-5.8735 145.3009,-4.7784 141.7332,-3.6223 138.701,-2.2562 135.65,-0.2725 132.5934,1.2667 129.5797,2.1469 125.9994,3.2519 122.4095,4.1993 118.9576,5.1167 115.4251,6.3501 111.5063,7.3046 107.3845,7.8161 103.9651,8.0819 100.127,8.2457 96.0336,8.1832 92.5768,7.7658 88.6687,7.0583 84.7152,6.48 81.1479,6.1673 76.6182,5.7718 70.6665,5.1716 63.4767,4.6332 54.9305,4.1966 46.2538,3.667 37.895,2.9688 30.2195,2.2445 23.046,2.0189 16.2327,2.1287 10.7403,2.2774 6.1721,2.4259 2.0497,2.5654 0,2.6417 A2.6417,2.6417 0 0 1 0,-2.6417 Z" stroke-linecap="round" fill="#1d1d1d"/></g></g><g transform="matrix(1, 0, 0, 1, 151.0669, 586.1063)" opacity="1"><g transform="scale(1)"><path d="M0.8681,-3.2812 T2.3928,-2.872 6.1863,-2.2731 10.7841,-1.8085 15.0161,-1.4243 18.3012,-1.0675 21.2307,-0.8031 24.3915,-0.771 27.7332,-0.7405 30.8792,-0.7273 33.7983,-0.7591 37.1807,-0.7937 40.9644,-0.8029 44.4161,-0.8192 47.4309,-0.8516 50.398,-1.127 53.5773,-1.4421 56.69,-1.2878 59.6755,-0.7845 63.4135,0.4379 67.0474,1.7439 70.157,2.5516 73.2019,3.2922 76.1778,3.8462 79.7027,4.4751 83.7208,5.3272 87.2791,6.0219 90.8293,6.5916 94.7159,6.9884 97.9904,7.0361 101.3378,7.2208 105.2963,7.6962 108.969,8.2973 112.029,8.8789 115.3331,9.3841 118.7957,9.9153 121.9009,10.3531 124.781,10.7504 127.7355,11.1769 131.0235,11.6835 134.3703,12.27 137.5995,12.6489 140.9499,13.0092 144.4245,13.5129 147.6115,14.1751 150.8841,14.983 154.09,15.7528 157.6874,16.3665 161.4633,16.9214 164.7283,17.4982 168.1731,18.2565 171.8951,19.1513 175.3106,19.7726 178.2572,20.2501 181.2379,20.798 184.8373,21.3286 188.5748,21.84 191.763,22.3919 195.0094,23.0428 198.4236,23.7209 201.5478,24.3417 204.3845,24.9328 207.2986,25.5019 210.6463,26.0317 214.2584,26.607 218.0401,27.1933 221.7329,27.4496 225.066,27.7078 228.9845,28.4744 232.6896,29.254 235.719,29.791 239.3715,30.3367 243.4287,30.9352 246.7868,31.3448 249.946,31.6472 253.2311,31.9284 256.7683,32.2722 260.6243,32.7637 264.2959,33.1205 268.4082,33.4505 272.7651,33.89 277.2676,34.2785 281.4103,34.4609 284.5268,34.6994 287.633,34.9494 290.8634,34.9759 294.1391,34.943 297.4207,34.9047 300.636,34.8727 304.0635,34.8561 307.3314,34.8407 310.4021,34.8192 313.4287,34.8007 316.3903,34.7852 319.5004,34.7929 323.0291,35.0646 326.4875,35.5477 329.4783,35.85 332.694,36.1289 336.152,36.4103 339.2494,36.4926 342.2664,36.4916 345.3417,36.481 348.5265,36.4826 352.003,36.5021 355.2184,36.52 358.2639,36.5125 361.33,36.4923 364.5423,36.4782 368.0872,36.4799 371.7445,36.5035 375.0933,36.73 378.6835,37.0134 382.5781,37.3329 385.8581,37.8573 389.8574,38.6444 394.119,39.3417 397.2328,39.7894 401.3343,40.2786 405.7389,40.6259 409.6015,41.0116 413.6482,41.5553 417.7841,42.1365 421.9752,42.4473 426.2352,42.6048 430.1873,42.8489 433.5702,42.9225 437.0781,42.8909 440.4178,42.8553 443.4983,42.8176 446.4584,42.7865 449.411,42.7611 452.949,42.986 457.7358,43.898 461.9596,44.8272 465.6199,45.4064 469.7862,46.0395 473.4448,46.4042 476.6358,46.438 479.9872,46.3903 483.4784,46.3373 486.6172,46.2939 490.2069,46.2795 493.733,46.2899 497.106,46.3068 500.6268,46.5336 503.6393,46.7989 506.6621,46.8299 509.9432,46.8082 513.3538,46.794 516.5583,46.7787 520.0512,46.7899 523.9123,46.8187 527.4562,46.8284 530.9135,46.8131 534.6605,46.8019 538.3298,46.8108 541.6084,46.8139 544.589,46.8009 547.854,46.8017 551.5618,46.8522 555.0974,46.9088 558.3678,46.9187 561.6358,46.8953 564.9133,47.1168 568.2597,47.3566 571.6131,47.3467 574.6885,47.3273 577.8066,47.5706 581.1041,48.0833 584.4397,48.4191 587.6246,48.4989 590.691,48.7311 593.8055,49.1767 596.4624,49.6121 597.5843,49.826 A3.6396,3.6396 0 0 1 596.4357,57.014 T594.5046,56.755 590.8248,56.2717 587.1422,56.0304 583.5422,55.917 580.4715,55.6191 576.8808,55.1862 573.0368,54.9417 569.724,54.9162 566.2881,54.8366 562.9279,54.5209 559.7425,54.2515 556.6878,54.236 553.4146,54.2728 549.8869,54.3343 546.4514,54.3615 542.9731,54.3501 539.4813,54.3465 535.935,54.3627 532.676,54.3633 529.7069,54.3392 526.3884,54.3312 522.6023,54.3502 518.5216,54.3739 514.8047,54.3763 511.7117,54.3575 508.6163,54.3357 505.5864,54.295 502.7046,54.1669 499.4916,53.89 495.8582,53.7149 491.9801,53.7345 488.1716,53.7406 484.815,53.7046 481.6961,53.6533 478.6258,53.6074 475.6533,53.5321 472.5845,53.3359 469.0552,52.9319 464.8727,52.4262 460.5149,51.8458 456.411,51.1446 452.3637,50.6132 448.8209,50.4342 445.8661,50.4078 442.9017,50.3754 439.7194,50.3365 436.2997,50.2976 433.0881,50.2431 430.0828,50.1009 426.8755,49.7988 423.1781,49.5763 419.5048,49.1917 416.3256,48.7379 413.0523,48.384 409.2171,47.9269 405.2203,47.6189 401.84,47.4082 398.9852,47.1735 395.4333,46.715 390.9451,46.0905 386.2234,45.4155 382.2668,44.8782 378.5923,44.6727 375.0334,44.404 371.7445,44.1965 368.0872,44.2201 364.5423,44.2218 361.33,44.2077 358.2639,44.1875 355.2184,44.18 352.003,44.1979 348.5265,44.2174 345.3413,44.219 342.261,44.2071 339.2096,44.198 336.1319,44.1392 332.6302,43.8432 329.1161,43.4997 326.0726,43.1975 322.7381,42.7354 319.0443,42.4853 315.7744,42.491 312.8116,42.4749 309.725,42.4562 306.553,42.4348 303.2744,42.4188 299.9452,42.4004 296.7623,42.3663 293.4474,42.3244 290.0519,42.2678 286.7893,42.1286 283.3373,41.8164 279.2383,41.6175 275.0907,41.4831 271.6677,41.162 268.4142,40.7625 264.8987,40.4372 261.4766,40.1363 257.9361,39.8237 254.4799,39.5978 250.9284,39.2477 247.3359,38.9353 244.3303,38.5788 241.0008,38.0297 236.9407,37.5023 233.3293,36.9848 230.336,36.435 227.3868,35.8203 224.0567,35.2805 220.7239,35.0052 217.8711,34.68 215.0345,34.1187 212.0085,33.5315 208.6533,33.1043 205.4214,32.6704 202.1891,31.8244 198.9044,31.0838 195.3335,30.5776 191.8733,29.9265 188.9359,29.3517 185.564,28.9098 182.0221,28.3828 178.8864,27.796 175.9442,27.2302 172.8661,26.5828 169.74,26.0482 166.7597,25.4362 163.5759,24.707 159.8354,23.9448 156.017,23.2882 152.5145,22.6416 149.1277,21.8335 145.5551,21.1413 141.6689,20.4563 138.0848,19.9909 134.152,19.5787 129.9328,18.9914 126.5049,18.5781 123.333,18.1117 119.7628,17.4568 115.5764,16.9197 111.8279,16.3887 108.5831,15.7533 105.224,15.1724 101.0733,14.7284 97.0889,14.5295 94.1382,14.437 90.9885,14.0165 87.1754,13.3928 83.0817,12.6413 79.7474,11.7886 76.8373,11.0879 73.4899,10.5426 70.2249,9.9476 66.5179,9.0649 62.7266,7.8423 59.3164,6.7805 56.0077,6.2424 52.8867,6.2328 49.74,6.4719 46.5556,6.5237 43.2477,6.4943 39.631,6.4828 35.795,6.4612 32.5431,6.4179 29.5017,6.4 26.185,6.414 22.2422,6.4017 18.3037,6.0596 15.1435,5.6557 12.1876,5.3424 9.0341,4.9753 5.9796,4.6953 2.8338,4.1692 0.1066,3.5332 -0.8681,3.2812 A3.3941,3.3941 0 0 1 0.8681,-3.2812 Z" stroke-linecap="round" fill="#1d1d1d"/></g></g><g transform="matrix(1, 0, 0, 1, 150.2187, 623.6938)" opacity="1"><g transform="scale(1)"><path d="M0.2176,-2.7082 T1.8059,-2.5712 5.3815,-2.2849 9.5901,-1.8764 14.5518,-1.0468 20.5444,0.0935 26.955,1.38 33.0263,2.8793 37.7473,4.0175 41.3302,4.6775 44.7502,5.25 48.2548,5.6313 51.8669,5.8503 55.1443,6.1747 59.3574,6.9617 63.5991,7.8725 66.6823,8.5325 70.3517,9.1809 75.1229,10.1645 80.0825,11.4422 83.8639,12.2462 86.8475,12.6596 89.7839,13.1668 92.6228,13.6531 95.9211,14.1043 99.5635,14.6108 102.7222,15.0986 105.8668,15.4492 109.0066,15.8076 112.1256,16.4701 115.639,16.7371 119.3655,16.5656 123.4856,16.8011 127.5798,17.3155 131.7709,17.8382 136.121,18.2262 140.192,18.6081 143.9344,18.8883 147.169,19.158 150.0898,19.6512 153.5646,20.3675 157.0968,21.1554 160.1986,21.6406 163.1956,21.8832 166.1041,21.976 169.5726,22.1438 173.6191,22.7753 177.4018,23.432 180.6118,23.8346 183.5514,24.1342 186.4441,24.2188 189.9808,24.3895 193.8221,24.9983 197.1229,25.844 200.1532,26.5982 203.1467,27.0135 206.4471,27.0998 208.2571,27.1122 A3.6679,3.6679 0 0 1 208.2229,34.4478 T206.8025,34.4471 203.5849,34.3451 200.3476,34.0185 197.0184,33.4124 193.6905,32.5663 190.0779,31.9222 186.3573,31.7238 183.2027,31.5776 180.094,31.2272 177.0219,30.8576 173.5046,30.2884 170.117,29.6824 167.1859,29.4924 164.1588,29.4176 161.1135,29.0924 157.8528,28.5276 154.7051,27.9262 151.8558,27.3143 148.6456,26.5907 144.9844,25.9117 141.3857,25.4786 137.7916,25.1417 134.4176,24.8975 130.8475,24.6741 126.9875,24.2834 122.5712,23.8892 118.2245,23.7098 114.9743,23.6137 111.4327,23.1387 107.3496,22.4213 103.0234,21.8584 98.1364,21.2569 93.0345,20.451 88.9778,19.553 85.9087,18.7889 82.7185,18.1281 78.6455,17.1042 73.78,15.8084 69.1929,14.7574 65.589,14.0353 62.3782,13.4444 58.2592,12.6179 54.1115,11.6782 50.967,10.9257 47.5473,10.1704 43.9499,9.3873 40.5133,8.6331 36.8483,7.7932 32.1438,6.6436 26.2283,5.3373 19.8418,4.2746 13.9871,3.4433 9.3249,2.9958 5.0799,2.9345 1.3724,2.8266 -0.2176,2.7082 A2.7169,2.7169 0 0 1 0.2176,-2.7082 Z" stroke-linecap="round" fill="#1d1d1d"/></g></g><g transform="matrix(1, 0, 0, 1, 356.778, 656.4069)" opacity="1"><g transform="scale(1)"><path d="M0.2648,2.9536 T-1.0577,3.0708 -3.8525,3.3415 -7.3062,3.5276 -10.8648,3.6058 -15.2484,3.7009 -19.4913,3.7648 -22.5041,3.7724 -26.4845,3.816 -30.8235,3.9263 -34.4399,4.2874 -38.1828,4.8634 -41.645,5.2369 -45.087,5.5685 -49.726,5.8147 -54.3783,5.8452 -59.2122,5.8035 -64.4436,5.729 -69.3883,5.6918 -74.2043,5.6765 -78.9058,5.6849 -82.7215,5.6635 -86.3044,5.663 -90.0448,5.7284 -93.1332,5.8065 -96.1039,5.8939 -99.1574,5.9837 -102.1581,6.3499 -105.1269,7.1336 -108.0513,7.9005 -111.2375,8.599 -114.7786,9.3112 -118.2718,10.1232 -121.9983,10.955 -125.5684,11.4973 -129.132,11.9983 -132.7805,12.5309 -136.0104,12.8593 -139.2,12.9746 -142.8007,12.9855 -146.1716,12.9914 -149.1673,13.0086 -152.562,13.0255 -156.0587,13.036 -159.1554,13.0421 -162.1241,13.0607 -165.1716,13.0725 -168.1595,13.054 -171.2474,13.0171 -174.6021,12.9997 -178.0249,13.0239 -181.2649,13.0565 -184.3632,13.0671 -187.3969,13.0787 -190.3967,13.1045 -193.3355,13.1316 -196.2379,13.1541 -199.1355,13.1593 -202.4523,13.3038 -206.1968,13.5128 -208.072,13.5723 A3.7661,3.7661 0 0 1 -208.408,6.0477 T-205.6243,5.7545 -201.1807,5.4506 -197.7345,5.4437 -194.4973,5.4589 -191.5823,5.4841 -188.4674,5.5135 -185.3308,5.5305 -182.0607,5.5386 -178.7112,5.5674 -175.6568,5.5976 -172.7716,5.5984 -169.904,5.5762 -166.4294,5.5412 -162.9179,5.5334 -159.9783,5.5513 -156.9713,5.5588 -153.8417,5.5645 -150.5405,5.5828 -147.3621,5.6064 -144.5101,5.6062 -141.4589,5.5995 -137.9815,5.5762 -134.4364,5.311 -131.2393,4.9637 -128.1738,4.5851 -124.7693,4.0882 -120.9979,3.343 -117.017,2.4129 -113.5219,1.7141 -110.4546,1.1487 -106.8635,0.3515 -102.8429,-0.5049 -99.1875,-0.8037 -96.1039,-0.7139 -93.1332,-0.6265 -90.0448,-0.5484 -86.3044,-0.483 -82.7215,-0.4835 -78.906,-0.5051 -74.2048,-0.497 -69.3898,-0.5134 -64.4485,-0.5545 -60.5112,-0.6175 -56.864,-0.6828 -52.208,-0.7819 -48.0538,-0.9446 -44.83,-1.1621 -41.464,-1.3435 -38.0809,-1.5243 -34.6406,-1.7923 -30.8398,-1.8706 -26.4965,-1.7705 -22.5289,-1.7441 -19.5342,-1.7631 -15.3694,-1.8063 -11.1041,-1.9081 -7.7965,-2.1336 -4.4628,-2.5057 -1.5871,-2.8337 -0.2648,-2.9536 A2.9654,2.9654 0 0 1 0.2648,2.9536 Z" stroke-linecap="round" fill="#1d1d1d"/></g></g><g transform="matrix(1, 0, 0, 1, 148.0435, 706.9946)" opacity="1"><g transform="scale(1)"><path d="M0,-3.3389 T1.5552,-3.3563 4.9195,-3.7405 8.3858,-4.254 11.6246,-4.4551 14.6534,-4.5357 17.5148,-4.5783 20.7219,-4.6197 24.6342,-4.508 28.6147,-4.2532 32.0187,-3.7857 35.257,-3.2297 39.4804,-2.8963 43.6544,-2.6866 46.7364,-2.4492 50.7094,-2.1653 55.7416,-1.8557 60.2821,-1.5888 64.4771,-1.4825 68.3211,-1.4869 71.5681,-1.5768 74.7681,-1.696 78.2594,-1.6069 81.8482,-1.3633 85.6027,-1.2162 89.8986,-1.0047 94.0125,-0.738 97.3571,-0.6235 100.5714,-0.6085 103.916,-0.6501 107.3046,-0.7226 110.7076,-0.7457 114.2292,-0.7208 117.7647,-0.7004 121.2791,-0.7178 124.6466,-0.5219 127.7048,-0.298 131.3222,-0.2748 135.5555,-0.2145 139.3222,-0.1667 142.8025,-0.1499 146.6047,0.0257 150.0386,0.2592 153.1322,0.3524 157.034,0.4418 161.5438,0.5371 165.5202,0.5562 169.1247,0.5132 172.4156,0.4351 175.4003,0.365 179.379,0.1688 183.7222,-0.2252 187.9942,-0.6754 192.0963,-1.085 195.2335,-1.3584 198.2221,-1.7194 201.9976,-2.4243 205.9172,-3.2054 210.0587,-3.8399 214.5089,-4.4089 218.1011,-4.8971 221.3724,-5.2873 224.8432,-5.7082 228.3689,-6.4687 232.0384,-7.3586 235.6169,-8.0786 238.915,-8.9235 242.2786,-9.7622 245.6666,-10.6508 248.5914,-11.8356 251.4865,-12.8598 254.6932,-13.5229 257.9585,-13.9828 261.3019,-14.6454 264.4323,-15.7277 267.2997,-16.646 270.5794,-17.3048 274.0056,-18.234 277.2514,-19.4772 280.3813,-20.7121 283.3911,-21.7637 287.1221,-22.764 291.1953,-23.8636 294.6981,-24.8332 297.6606,-25.5928 300.7442,-26.3227 303.9408,-26.7292 306.8343,-26.7622 309.6414,-26.7461 313.0397,-26.6808 317.3431,-26.4433 322.2424,-25.9153 326.4374,-25.2904 330.3835,-24.673 334.9212,-23.8614 338.7663,-23.2043 341.9152,-23.0478 344.9766,-23.071 348.6228,-22.9152 353.2494,-22.4585 358.0068,-22.0064 362.3579,-21.6105 366.1349,-21.3377 369.97,-21.148 373.9205,-20.9569 377.336,-20.7107 380.5728,-20.2336 383.7113,-19.6851 386.9423,-19.1185 390.0634,-18.6383 393.0076,-18.3376 396.7672,-18.0401 400.6407,-17.759 403.865,-17.6743 407.001,-17.6814 410.9808,-17.5376 415.0908,-17.2807 418.6362,-17.1512 422.4729,-17.0876 426.2599,-16.819 429.6846,-16.5738 433.0046,-16.5698 436.1664,-16.5911 439.1864,-16.6028 442.2548,-16.6117 445.2053,-16.6215 448.3219,-16.6363 451.7564,-16.8323 455.1101,-17.163 458.816,-17.4159 462.7164,-17.5436 466.1036,-17.5662 469.3868,-17.7672 472.4173,-18.3405 475.68,-19.0274 479.5441,-19.6654 483.0525,-20.0275 486.767,-20.2815 490.4082,-20.5146 493.8702,-20.5695 497.6774,-21.0041 501.2237,-21.5466 504.6628,-21.9586 508.1069,-22.5366 511.271,-23.1589 514.6095,-23.7817 517.9501,-24.2829 520.9329,-24.6448 524.4588,-24.8182 528.6283,-24.7829 532.8424,-24.9144 537.0417,-25.1186 541.2112,-25.1701 544.9948,-25.2214 548.2432,-25.294 551.5728,-25.3062 555.8762,-25.2356 560.6398,-25.1548 564.7172,-25.1658 568.5827,-25.2392 572.5753,-25.2613 576.4867,-25.2352 580.2905,-25.2204 583.6809,-25.0191 587.8072,-24.2227 591.4104,-23.2485 592.539,-22.8669 A3.4346,3.4346 0 0 1 590.481,-16.3131 T588.6606,-16.8707 585.2856,-17.7229 582.1806,-18.2273 578.6155,-18.426 574.4471,-18.388 570.1708,-18.3707 566.2827,-18.436 562.5962,-18.4913 558.2173,-18.4432 553.4509,-18.3501 549.4752,-18.3286 546.3177,-18.3869 543.0179,-18.4133 539.3176,-18.3705 535.3181,-18.2041 531.0198,-17.906 526.4703,-17.6501 522.6485,-17.4817 519.4897,-17.1816 516.1618,-16.8882 512.5579,-16.3562 508.4518,-15.6329 504.8597,-15.2063 501.86,-14.9507 498.1917,-14.44 494.0772,-13.9805 489.7843,-13.7656 485.0079,-13.2976 480.6418,-12.6323 476.5371,-11.7887 472.6802,-11.0171 468.6771,-10.5518 464.7894,-10.3583 461.4128,-10.234 457.5975,-9.862 453.6411,-9.338 449.9767,-9.0956 446.5323,-9.1119 443.3288,-9.1269 440.2549,-9.1352 437.2087,-9.1459 434.3111,-9.1639 431.0896,-9.2048 427.8224,-9.334 424.4889,-9.6167 420.979,-9.7786 417.2356,-9.7932 413.7153,-9.9566 410.3726,-10.1878 406.9787,-10.3037 403.7106,-10.3607 400.4292,-10.4777 397.1291,-10.7459 393.949,-10.9899 390.8006,-11.3211 387.1421,-11.9313 383.3109,-12.5902 379.8736,-13.1772 376.9342,-13.6298 373.7548,-13.9332 370.1689,-14.286 366.8354,-14.629 363.5527,-14.8865 359.7511,-15.2345 355.0554,-15.6086 350.2074,-15.9489 346.3816,-16.1032 342.8136,-16.1649 339.3653,-16.3849 336.3655,-16.9169 333.2165,-17.6398 329.3576,-18.2777 325.6568,-18.7084 322.5312,-18.9202 318.9906,-19.1408 315.1087,-19.252 311.3466,-19.1697 307.9107,-19.1218 304.539,-19.1155 301.3215,-18.8045 298.4083,-18.117 295.5142,-17.1846 292.1725,-16.1208 288.6544,-15.1221 285.625,-14.392 282.8387,-13.5943 279.6578,-12.3214 276.1799,-11.1614 272.4264,-10.1626 269.0109,-9.2763 266.2243,-8.4669 263.4085,-7.6637 260.4249,-7.043 257.3649,-6.4537 254.3786,-5.8943 251.1152,-4.8929 247.4015,-3.5556 244.0493,-2.7147 241.1798,-2.1405 238.1127,-1.5506 234.4534,-0.8156 230.7717,-0.0023 227.4989,0.6033 224.0563,1.0709 220.6159,1.4962 217.1405,1.8487 213.0024,2.2876 209.0932,2.8935 205.5453,3.5649 202.1127,4.313 198.8781,4.9477 195.0406,5.4706 191.0535,5.8783 186.9607,6.3358 182.5837,6.9239 178.6595,7.3532 175.4002,7.475 172.4154,7.4048 169.124,7.3264 165.5179,7.2821 161.538,7.2973 157.8447,7.3804 154.6819,7.4352 150.8453,7.3361 146.6765,7.0485 142.8022,6.8697 139.3213,6.8862 135.5526,6.9329 131.6961,6.9937 128.2311,6.9593 124.7716,6.623 121.254,6.3178 117.7647,6.3004 114.2292,6.3208 110.7075,6.3456 107.3013,6.3218 103.8978,6.2412 100.5078,6.173 97.1697,6.1036 93.4974,5.9329 89.4864,5.7055 85.4251,5.5794 81.3021,5.4484 77.8549,5.2222 74.7646,5.0552 71.548,4.9274 68.2638,4.8091 64.2969,4.7149 59.8631,4.5175 56.2706,4.2707 52.7458,4.0827 47.9385,3.8274 42.3599,3.7061 36.9754,3.6574 32.3215,3.1991 27.8719,2.7385 24.0483,2.5238 20.7279,2.3827 17.5363,2.3494 14.7235,2.3333 11.3072,2.3679 7.6759,2.5802 4.6019,3.063 1.5765,3.3563 0,3.3389 A3.3389,3.3389 0 0 1 0,-3.3389 Z" stroke-linecap="round" fill="#1d1d1d"/></g></g><g transform="matrix(1, 0, 0, 1, 157.0124, 839.2363)" opacity="1"><g transform="scale(1)"><path d="M0,-3.3402 T1.5641,-3.3586 5.0358,-3.5769 8.5439,-3.8606 11.6874,-3.9804 14.6693,-4.0374 17.5197,-4.0733 20.7233,-4.1124 24.5003,-4.0766 28.4427,-3.9325 31.8205,-3.6504 35.0229,-3.3278 38.2155,-3.1276 42.457,-2.9479 48.0758,-2.6915 52.921,-2.532 56.5456,-2.4119 60.1887,-2.2611 64.4368,-2.2178 68.3083,-2.2406 71.5636,-2.3363 74.7673,-2.4571 78.1662,-2.4361 81.7221,-2.3029 85.5615,-2.2117 89.8067,-2.0827 93.898,-1.9276 97.3153,-1.8694 100.5572,-1.872 103.9119,-1.9191 107.3039,-1.9932 110.7076,-2.0163 114.2292,-1.9913 117.7647,-1.9708 121.2686,-1.9896 124.5705,-1.9067 127.6336,-1.8098 131.316,-1.8032 135.5549,-1.7445 139.322,-1.6968 142.8025,-1.68 146.4569,-1.5842 149.8624,-1.4659 153.0981,-1.4149 157.0273,-1.3345 161.5425,-1.242 165.5197,-1.2237 169.1245,-1.2669 172.4156,-1.345 175.4003,-1.4151 179.4291,-1.5262 183.8555,-1.7226 188.1502,-1.9369 192.3105,-2.1428 196.2358,-2.3699 200.3867,-2.6868 204.4251,-3.0951 208.0146,-3.4974 211.0898,-3.7162 214.6353,-3.903 218.3181,-4.1844 221.5725,-4.4128 224.974,-4.6493 228.5972,-5.09 232.2869,-5.6023 235.7945,-6.0125 239.1914,-6.509 242.639,-6.9959 246.054,-7.5036 249.1214,-8.1926 251.9979,-8.7538 255.0675,-9.0812 258.194,-9.3096 261.5877,-9.6836 264.962,-10.3183 268.1566,-10.84 271.2631,-11.1849 274.4015,-11.6926 277.7779,-12.388 280.9084,-13.0651 283.7323,-13.627 286.595,-14.0446 289.6749,-14.4232 293.3755,-14.9881 296.9573,-15.572 300.1708,-16.0234 303.3788,-16.2855 306.5543,-16.3194 309.6416,-16.3043 313.0398,-16.2377 317.245,-16.0676 322.0698,-15.7116 326.2603,-15.2967 330.1527,-14.9335 334.5523,-14.5104 338.064,-14.1774 340.9067,-14.1091 344.4291,-14.1461 348.5389,-14.064 353.0765,-13.7803 357.8824,-13.4934 362.2604,-13.264 366.0502,-13.1346 369.7233,-13.0966 373.6787,-13.0357 377.2435,-12.8994 380.4135,-12.6404 383.5018,-12.3448 386.5553,-12.0691 389.6263,-11.83 392.806,-11.6494 396.5554,-11.4915 400.4237,-11.3416 403.8292,-11.295 406.9958,-11.3123 410.8468,-11.2436 414.9289,-11.1017 418.6032,-11.021 422.4602,-10.9676 426.1957,-10.8126 429.6234,-10.6953 432.999,-10.709 436.1658,-10.7319 439.1863,-10.7435 442.2548,-10.7523 445.2053,-10.762 448.3219,-10.7767 451.8478,-10.8889 455.3333,-11.0614 458.9861,-11.1689 462.7702,-11.2076 466.1233,-11.2071 469.4925,-11.3194 472.7569,-11.6608 476.0502,-12.0347 479.79,-12.3452 483.2056,-12.5022 486.866,-12.6026 490.494,-12.699 493.9234,-12.7118 497.8,-12.9525 501.3674,-13.2556 504.8184,-13.5031 508.3544,-13.8607 511.5685,-14.2437 514.4072,-14.5555 517.4639,-14.7874 520.8561,-15.0431 524.5164,-15.1716 528.6407,-15.1134 532.8954,-15.1497 537.1067,-15.2337 541.2323,-15.247 545.0014,-15.2867 548.2454,-15.3556 551.5732,-15.3672 555.8762,-15.2962 560.6399,-15.2153 564.7172,-15.2261 568.5827,-15.2995 572.5753,-15.3215 576.4867,-15.2954 580.2852,-15.2811 583.5946,-15.1953 587.4988,-14.8038 590.9593,-14.2841 592.0918,-14.067 A3.4465,3.4465 0 0 1 590.9282,-7.273 T588.9954,-7.5795 585.5124,-8.0602 582.2963,-8.3658 578.6155,-8.4859 574.4471,-8.4478 570.1708,-8.4305 566.2827,-8.4957 562.5962,-8.5508 558.2173,-8.5027 553.4508,-8.4094 549.4742,-8.3881 546.3136,-8.4479 543.005,-8.48 539.2814,-8.4555 535.1826,-8.343 530.9065,-8.158 526.4364,-7.9828 522.4209,-7.8454 518.7853,-7.6555 515.3196,-7.4856 512.0259,-7.245 508.6321,-6.9498 505.1878,-6.7642 501.7163,-6.6232 498.0692,-6.3525 494.024,-6.1056 489.6491,-5.9599 484.785,-5.6453 480.3959,-5.2402 476.2763,-4.7618 472.3828,-4.3364 468.502,-4.098 464.764,-4.0027 461.3284,-3.9135 457.4866,-3.6735 453.5838,-3.3647 449.9648,-3.2336 446.5323,-3.2514 443.3288,-3.2663 440.2549,-3.2744 437.209,-3.2849 434.3137,-3.3022 431.118,-3.3361 427.9489,-3.4176 424.5908,-3.5762 420.9881,-3.6529 417.2933,-3.6456 413.8986,-3.7268 410.5066,-3.8555 406.9839,-3.9304 403.7464,-3.9745 400.5657,-4.0421 397.2543,-4.1853 393.5478,-4.3519 389.8594,-4.571 386.2175,-4.9272 382.9904,-5.2688 380.0329,-5.5528 377.0267,-5.801 373.8638,-5.9771 370.2755,-6.2018 366.9013,-6.4335 363.7048,-6.6007 359.9054,-6.798 355.1548,-6.972 350.2548,-7.1096 346.3844,-7.1768 342.8447,-7.2283 339.5255,-7.3791 336.7367,-7.6806 333.5854,-8.0958 329.5884,-8.4625 325.8339,-8.666 321.6564,-8.7385 317.0153,-8.7756 313.0399,-8.7422 309.6421,-8.6755 306.8418,-8.6567 303.8466,-8.6582 300.8448,-8.4919 297.999,-8.1149 295.0448,-7.5909 291.6215,-6.9783 288.296,-6.4413 285.1917,-6.0321 282.087,-5.5614 279.0227,-4.9001 275.9917,-4.2722 272.9664,-3.7635 269.7762,-3.449 266.36,-2.9915 262.9885,-2.4359 260.0306,-2.1199 257.1017,-1.8078 253.9436,-1.4654 250.7942,-0.9128 247.8487,-0.3409 244.387,0.0806 240.8419,0.4876 237.6674,0.7995 234.1246,1.1646 230.4919,1.5743 227.205,1.8814 223.8651,2.1136 220.4914,2.3262 216.9664,2.5098 212.715,2.773 208.7862,3.1123 205.2284,3.4713 201.8513,3.8875 198.7291,4.2318 194.9465,4.5144 190.9166,4.7507 186.7459,5.0316 182.3488,5.394 178.5418,5.6445 175.4002,5.6951 172.4155,5.625 169.1241,5.5467 165.5184,5.5028 161.5393,5.519 157.0107,5.6041 153.0134,5.6597 149.4135,5.5501 146.0782,5.3856 142.8023,5.34 139.3215,5.3565 135.5533,5.4036 131.7005,5.4654 128.2792,5.444 124.8264,5.238 121.2645,5.0496 117.7647,5.0308 114.2292,5.0513 110.7075,5.0763 107.302,5.0528 103.9018,4.9742 100.522,4.9123 97.2115,4.8631 93.6119,4.7636 89.5783,4.6456 85.4663,4.5891 81.4282,4.5313 77.9482,4.4128 74.7654,4.2966 71.5525,4.1711 68.2766,4.0597 64.3371,3.9873 59.9565,3.8629 56.3503,3.7303 52.7986,3.6303 47.9799,3.5003 42.3882,3.492 37.1027,3.5293 32.4644,3.3176 28.0438,3.101 24.1823,2.9936 20.7265,2.894 17.5314,2.8594 14.7076,2.8379 11.8386,2.8297 8.928,2.8745 5.3016,3.1474 1.5677,3.3586 0,3.3402 A3.3402,3.3402 0 0 1 0,-3.3402 Z" stroke-linecap="round" fill="#1d1d1d"/></g></g><g transform="matrix(1, 0, 0, 1, 453.0826, 462.0244)" opacity="1"><g transform="scale(1)"><path d="M1.0829,3.2488 T-0.0366,3.6002 -2.8509,4.5901 -5.9317,5.724 -8.8016,6.6751 -11.9257,7.3685 -15.4468,7.6547 -19.5799,7.6843 -23.5076,7.9182 -27.2161,8.2467 -31.2802,8.3265 -35.1602,8.3318 -38.5172,8.345 -41.4344,8.3756 -44.3415,8.6703 -48.2938,9.2489 -52.4035,9.5728 -56.3122,9.9173 -60.0949,10.2782 -63.5715,10.2536 -66.9596,10.3526 -70.0965,10.6063 -73.2629,10.7615 -76.9173,10.9291 -80.7144,11.1077 -84.0506,11.858 -87.2843,13.3321 -90.6126,15.051 -94.5551,16.5592 -98.285,17.5102 -101.3629,18.0153 -104.6326,18.2101 -107.9246,18.6199 -110.833,19.3019 -114.019,20.1253 -117.3787,21.0517 -120.6257,21.8856 -124.3997,22.9239 -128.4236,24.1322 -131.7807,25.3822 -134.7659,26.8297 -137.9001,29.1838 -139.9806,32.6023 -141.1122,36.1546 -141.2939,39.5736 -139.7559,42.4411 -137.3018,44.5489 -134.4729,46.2855 -131.6205,48.081 -128.8252,49.4961 -125.7607,50.2985 -121.6351,51.3762 -116.864,52.574 -112.8395,53.2898 -109.6722,53.8661 -106.5385,54.2969 -103.1623,54.6911 -100.0589,55.2986 -96.3311,55.875 -91.608,56.6036 -87.2705,57.2386 -83.3483,57.5828 -79.73,57.748 -76.2352,57.7062 -72.7254,57.7915 -68.5802,58.2527 -62.7898,59.0521 -57.4536,59.7701 -53.609,60.2676 -50.3814,60.6503 -47.2835,60.7719 -44.1185,60.7183 -40.9667,60.5559 -37.6674,60.3852 -34.1491,60.3409 -30.8633,60.6101 -27.605,61.1275 -24.0541,61.738 -20.5204,62.2631 -17.0673,62.8209 -14.0159,63.2458 -10.278,63.3265 -5.4899,63.43 -1.3865,63.5829 2.3426,63.6491 6.4398,63.5966 9.9537,63.8279 13.0225,64.1416 16.2373,64.1585 19.6295,64.1524 23.1015,64.1682 26.5359,64.1767 30.0597,64.4799 33.8952,64.8581 37.7248,64.9333 41.3008,64.9034 44.4531,64.8594 48.0404,64.8544 51.8392,64.8775 55.2691,64.5514 58.5634,64.1293 61.7424,64.0138 65.0634,63.9635 68.3319,63.9311 71.5956,63.9057 74.7904,63.8945 78.4478,63.9131 82.1158,63.9287 85.2567,63.9236 88.6846,63.9282 92.3709,63.9391 95.9305,63.931 100.0737,64.2608 104.0614,64.6474 107.2897,64.7098 110.7116,64.7361 114.2762,65.1414 117.5803,65.9088 121.0164,66.6562 124.9861,67.4322 128.3847,68.2213 131.1531,68.7657 134.7055,69.5852 138.2416,70.6725 141.3183,71.7635 144.4258,72.5704 147.3923,72.5477 150.5628,72.1947 153.6217,71.6584 156.6618,70.9158 159.9835,69.8742 163.2314,68.0767 166.1805,65.625 169.0624,63.4309 171.999,61.6174 174.7204,59.8267 177.2212,58.1258 180.0426,56.5186 182.7798,54.215 184.9654,50.8604 186.4567,47.6159 187.7455,44.5688 189.3849,41.6613 190.8861,39.0948 192.474,36.454 193.7636,33.6373 194.2013,30.4169 193.6902,27.2345 191.7093,24.4039 189.0018,22.3508 186.48,20.8737 184.0014,19.2496 180.5847,17.46 177.004,15.9803 173.9859,14.8697 170.9045,14.3111 167.0487,13.965 163.1901,13.5525 159.6271,13.4804 156.1039,13.1708 152.8785,12.77 148.7021,12.5562 144.2798,12.4685 140.3036,12.4229 136.8312,12.4185 133.634,12.4559 130.4012,12.4773 126.3465,12.1164 122.3972,11.6524 118.5553,11.4737 114.698,11.4234 111.4241,11.4831 107.7083,11.5069 104.3401,11.4456 100.5352,11.098 95.9567,10.7047 91.8992,10.6398 88.5133,10.6792 85.0712,10.6937 80.7924,10.6605 76.4688,10.628 72.4406,10.3708 68.6541,10.0582 64.5237,9.9824 59.8982,9.6494 56.0587,9.2617 52.4975,9.1535 48.28,8.8744 44.5152,8.5157 41.487,8.3697 38.0909,8.3502 34.251,8.1301 29.7476,7.5439 25.5872,7.027 22.3675,6.5756 18.2663,5.8607 13.5997,4.9907 10.0832,4.4162 7.1862,3.9478 4.648,3.4584 3.6085,3.3047 A3.3381,3.3381 0 0 1 4.5515,-3.3047 T5.5925,-3.1616 8.8034,-2.553 12.7274,-1.6744 16.9335,-0.9178 21.8989,-0.3051 26.5008,0.1632 30.2293,0.5957 33.6145,1.1163 36.9462,1.4464 40.0257,1.5334 43.3173,1.6813 46.7514,2.0737 50.5781,2.352 54.7426,2.3879 58.7741,2.6105 62.5587,2.9215 66.1402,3.0895 69.5735,3.3004 72.8408,3.7648 76.4693,4.0524 80.7941,4.0208 85.0778,3.9906 88.5495,4.0156 92.0208,4.1226 96.3017,4.286 100.8006,4.6321 104.3518,4.8552 107.7141,4.7955 111.454,4.8304 114.7661,4.9273 118.717,4.9974 122.7537,5.0223 126.5981,5.2463 131.0486,5.47 134.9295,5.5008 138.4202,5.5297 142.0789,5.5218 146.3418,5.4624 150.7021,5.482 154.231,5.7302 157.8046,6.0131 161.7425,6.113 165.1294,6.2518 168.0723,6.6398 171.6012,6.979 175.439,7.6392 179.6252,8.942 184.4899,10.7647 188.4603,12.9149 191.2018,14.8157 193.7002,16.4273 196.1461,18.4911 198.814,21.2665 200.787,24.1206 201.6361,27.9503 201.8962,31.8794 201.3608,35.0398 199.8538,38.3663 198.0523,41.5339 196.24,44.8216 194.2586,48.4081 192.3976,52.057 190.5766,55.5229 188.6395,58.1849 186.1889,60.8468 183.2342,63.2967 180.0619,65.2781 177.3603,67.367 174.2763,69.4285 170.7369,71.8647 167.5409,74.3385 164.039,76.4307 160.5446,77.74 157.2553,78.5587 153.7317,79.1328 150.0041,79.8872 146.7016,80.397 143.7643,79.9561 140.8184,79.0857 137.8979,78.4546 134.5004,77.6093 130.7277,76.5434 127.0806,75.7001 123.8555,74.8933 120.5857,74.2282 117.0529,73.6455 113.7874,72.8271 110.5497,72.2371 107.1548,72.2248 103.4547,72.0857 99.5814,71.6914 95.9305,71.409 92.3709,71.4009 88.6846,71.4118 85.2567,71.4164 82.1158,71.4113 78.4478,71.4269 74.7904,71.4455 71.5957,71.4343 68.3326,71.4091 65.0711,71.3785 61.8256,71.3493 58.5823,71.4004 55.2321,71.777 51.8594,72.1025 48.5509,72.1301 45.3739,72.1315 42.1598,72.0864 38.8734,72.0224 35.745,71.9562 32.6261,71.818 29.6101,71.4373 26.5159,71.1629 23.0995,71.1705 19.6208,71.1833 16.1574,71.1571 12.9574,71.0225 9.9318,70.5471 6.4097,70.123 2.341,70.0693 -1.3895,70.1336 -5.5036,70.2802 -9.7151,70.3563 -13.4847,70.249 -16.9244,69.8804 -19.9362,69.3812 -23.7194,68.8017 -27.8855,68.1439 -31.3338,67.6447 -34.4029,67.1748 -37.6724,66.8133 -41.0147,66.6264 -44.3202,66.3645 -47.6824,65.9859 -50.9969,65.5814 -54.1469,65.1523 -57.9268,64.845 -62.2732,64.6679 -66.9171,64.1552 -71.9301,63.3758 -76.3365,62.849 -79.8799,62.6586 -83.6129,62.5946 -87.7387,62.5174 -92.0428,62.378 -98.1952,62.2123 -103.6178,61.7462 -106.7951,61.2614 -110.1244,60.7002 -113.9548,59.9814 -118.4401,59.3091 -122.2771,58.6178 -125.709,57.9647 -129,57.2851 -131.7756,56.4115 -134.3904,55.092 -136.8426,53.6461 -139.6469,52.1316 -142.336,50.457 -144.6456,48.7743 -146.6196,46.4703 -148.1778,42.868 -148.9224,38.9107 -148.3718,35.5918 -147.4669,32.5335 -146.5347,29.4278 -144.7971,25.912 -142.239,22.7666 -139.4391,20.7187 -136.3623,19.2325 -132.8817,17.9305 -129.6487,16.736 -125.7718,15.5658 -121.6222,14.4922 -118.3005,13.6769 -115.2938,12.8937 -112.1589,12.1304 -108.9418,11.4132 -105.9994,11.0761 -102.5321,10.9416 -98.3344,10.4303 -94.3268,9.4756 -90.8496,7.98 -87.3668,6.3214 -83.9815,5.3415 -80.7904,5.1369 -77.0887,5.1839 -73.5762,5.1288 -70.6561,4.9405 -67.3828,4.563 -62.4013,4.0845 -56.7711,3.4803 -51.927,2.8551 -47.3304,2.3008 -43.6252,1.689 -40.4024,1.4076 -36.9971,1.4315 -33.2652,1.3936 -29.3966,1.296 -25.9844,1.0932 -22.0513,0.6966 -17.9181,0.446 -14.5297,0.6228 -11.3199,0.212 -8.0311,-0.8537 -4.8023,-1.9019 -2.1932,-2.8569 -1.0829,-3.2488 A3.4245,3.4245 0 0 1 1.0829,3.2488 Z" stroke-linecap="round" fill="#1d1d1d"/></g></g></svg>